# xmcd CD database file
#
# Track frame offsets:
#	151
#	13430
#	26310
#	40171
#	54606
#	68677
#	80390
#	97358
#	110646
#	123868
#	135911
#	143659
#	157652
#	175351
#	189609
#	204417
#	216303
#	229473
#	242041
#	255088
#
# Disc length: 3584 seconds
#
# Revision: 2
# Processed by: cddbd v1.5.1PL2 Copyright (c) Steve Scherf et al.
# Submitted via: CDex 1.51
#
DISCID=130dfe14
DTITLE=Various Artist - History of Jazz
DYEAR=1950
DGENRE=Jazz
TTITLE0=THERE'S A SMALL HOTEL (Rodgers-Hart) Stan Getz Quartet - Jan 6
TTITLE1=FRANKIE AND JOHNNY (Traditional) Lu Watters Yerba Buena Jazz Band - Feb 7
TTITLE2=TIGER RAG (La Rocca-Shields) Firehouse Five Plus Two - Feb 18
TTITLE3=GOD BLESS THE CHILD (Holiday-Herzog Jr.) Billie Holiday and Her Orchestra - Mar 8
TTITLE4=ROCKER (Mulligan) Miles Davis - Mar 9
TTITLE5=PAL0 ALTO (Konttz) Lee Konitz Quintet - April 7
TTITLE6=MY BUCKET'S GOT A HOLE IN IT (Williams) Louis Armstrong and His All Stars feat Jack Teagarden - Apr 26
TTITLE7=MEAN TO ME (Turk-Ahlert) Sarah Vaughan acc by Jimmy Jones Band - May 19
TTITLE8=SONNY SPEAKS (Berman) Woody Herman and His Orchestra - Jun 25
TTITLE9=I CAN'T GIVE YOU ANYTHING BUT LOVE (Fields-McHugh) Gene Amrnons Quartet - Jun 28
TTITLE10=FINE AND DANDY (Jones-Swift) Teddy Wilson Trio - Jun 29
TTITLE11=I'LL REMEMBER APRIL (Raye-De Paul-Johnston) Charlie Parker with Strings - Jul 5
TTITLE12=ROSETTA (Hines-Woods) Earl Hines Trio - Jul 17
TTITLE13=YOU RASCAL YOU (Theard) Louis Armstrong with Louis Jordan and His Tympany Five - Aug 23
TTITLE14=HOW LONG HAS THIS BEEN GOING ON (Gershwin-Romberg) Ella Fitzgerald acc by Ellis Larkins - Sep 11
TTITLE15=BLUES FOR BLANTON (D.& M.Ellington) Duke Ellington with Oscar Pettiford - Sep 13
TTITLE16=ONE 0' CLOCK JUMP (Basie) Count Basie and His Orchestra - Nov 2
TTITLE17=LULLABY OF THE LEAVES (Young-Petkere) Benny Goodman Sextet - Nov 24
TTITLE18=l APOLOGIZE (Hoffman-Goodhart-Nelson) Billy Eckstine acc by Pete Rugolo Orchestra - Dec 2 1
TTITLE19=I'M GOING DOWN TO THE RIVER (Charles) Ray Charles - c 1950
EXTD=YEAR: 1950
EXTT0=
EXTT1=
EXTT2=
EXTT3=
EXTT4=
EXTT5=
EXTT6=
EXTT7=
EXTT8=
EXTT9=
EXTT10=
EXTT11=
EXTT12=
EXTT13=
EXTT14=
EXTT15=
EXTT16=
EXTT17=
EXTT18=
EXTT19=
PLAYORDER=
